<?xml version="1.0" encoding="UTF-8"?>
<svg id="Layer_2" data-name="Layer 2" xmlns="http://www.w3.org/2000/svg" viewBox="0 0 231.45 267.4">
  <defs>
    <style>
      .cls-1 {
        fill: #fff9f7;
        stroke: #000;
        stroke-miterlimit: 10;
        stroke-width: .63px;
      }

      .cls-2 {
        fill: #302321;
      }

      .cls-2, .cls-3, .cls-4, .cls-5 {
        stroke-width: 0px;
      }

      .cls-3 {
        fill: #ff6752;
      }

      .cls-4 {
        fill: #febe50;
      }

      .cls-5 {
        fill: #ff880d;
      }
    </style>
  </defs>
  <g id="Layer_2-2" data-name="Layer 2">
    <g>
      <path class="cls-3" d="M31.15,90.67c5.39-41.14,8.63-70.12,38.83-53.29,30.2,16.83,30.64-57.94,50.05-31.76s26.42,103.47,33.97,71.68,17.37-69.84,30.31-31.5c12.94,38.33,1.63,85.97,8.1,105.61s.09,28.39,21.66,48.96,31.5,36.43-21.66,54.91c-58.74,20.42-182.36,13.29-190.99-8.22-8.63-21.5,24.61-50.93,24.61-65.89s-7.01-19.85-12.8-52.78-6.43-70.82,10.83-53.05,7.08,15.34,7.08,15.34Z"/>
      <path class="cls-5" d="M53.31,138.51c-25.3-35.61,27.67-103.37,44.21-43.63s21.76-44.04,31.89-13.64,14.58,37,32.18,17.8,4.27,13.87,12.27,59.74,59.21,84.28-4.8,91.75-154.16,9.07-149.89-17.6,35.21-32.54,40.01-45.87-5.87-48.54-5.87-48.54Z"/>
      <path class="cls-4" d="M80.53,184.63c-3.17-45.76-24.54-84.65,7.13-66.35,31.67,18.3,46.71,13.73,56.21,6.1,9.5-7.63-6.4,79.47,23.75,85.42,30.15,5.95,5.54,30.51-4.75,32.03s-102.13,12.96-110.84-3.81c-8.71-16.78,14.25-36.61,21.38-45l7.13-8.39Z"/>
      <g>
        <ellipse class="cls-1" cx="69" cy="181.17" rx="17.97" ry="16.08" transform="translate(-63.23 39.4) rotate(-22.16)"/>
        <ellipse class="cls-2" cx="69.88" cy="177.85" rx="6.56" ry="6.01" transform="translate(-61.91 39.49) rotate(-22.16)"/>
      </g>
      <g>
        <ellipse class="cls-1" cx="153.53" cy="180.35" rx="16.08" ry="17.97" transform="translate(-68.13 263.82) rotate(-70.23)"/>
        <ellipse class="cls-2" cx="152.83" cy="176" rx="6.01" ry="6.56" transform="translate(-64.49 260.29) rotate(-70.23)"/>
      </g>
      <path class="cls-3" d="M127.74,211.27c23.94-9.69,36.7-2.93,15.54,9.15-12.27,7-42.75,14.41-62.24,4.25-16.65-14.62,5.45-11.17,20.91-9.59,8.01.82,18.23-.35,25.79-3.81Z"/>
    </g>
  </g>
</svg>